<svg width="241" height="118" viewBox="0 0 241 118" fill="none" xmlns="http://www.w3.org/2000/svg">
<g style="mix-blend-mode:hard-light">
<path d="M4.66972 102.218V116.878H0.491009V83.9501H4.6296V98.6105H18.1476V83.9501H22.2963V116.858H18.1476V102.218H4.66972Z" fill="white"/>
<path d="M29.902 105.765V105.836C29.8756 106.875 30.063 107.908 30.4526 108.872C30.8422 109.835 31.4256 110.708 32.1667 111.437C32.8567 112.16 33.6875 112.734 34.6078 113.124C35.5281 113.513 36.5184 113.71 37.5178 113.702C38.5243 113.704 39.5206 113.5 40.4458 113.104C41.3711 112.707 42.2057 112.127 42.8989 111.397C43.1127 111.177 43.5237 110.696 44.1316 109.954L48.0197 111.327C47.4637 112.27 46.7903 113.139 46.0155 113.912C43.7716 116.14 40.7404 117.395 37.5782 117.404C34.416 117.414 31.3774 116.177 29.1204 113.962C28.0325 112.903 27.1681 111.636 26.5777 110.237C25.9874 108.837 25.6832 107.334 25.6832 105.815C25.6832 104.297 25.9874 102.794 26.5777 101.394C27.1681 99.9951 28.0325 98.7283 29.1204 97.6686C31.3708 95.4471 34.4058 94.2016 37.5679 94.2016C40.7301 94.2016 43.765 95.4471 46.0155 97.6686C47.0302 98.7338 47.8194 99.9929 48.336 101.37C48.8526 102.748 49.0858 104.215 49.0217 105.685L29.902 105.765ZM30.6335 102.148H44.332C43.3633 99.3086 41.0919 97.8924 37.5178 97.899C33.9437 97.9057 31.6489 99.322 30.6335 102.148Z" fill="white"/>
<path d="M74.9655 116.858H70.8269V113.241C70.1082 114.577 69.0253 115.682 67.7038 116.427C66.3823 117.172 64.8765 117.526 63.3614 117.45C61.8001 117.482 60.2489 117.192 58.8042 116.599C57.3596 116.006 56.0524 115.122 54.964 114.002C53.8737 112.944 53.0069 111.678 52.415 110.278C51.8231 108.879 51.5181 107.375 51.5181 105.856C51.5181 104.336 51.8231 102.832 52.415 101.433C53.0069 100.033 53.8737 98.7669 54.964 97.7086C56.0563 96.5953 57.3647 95.717 58.8088 95.1276C60.2528 94.5383 61.8021 94.2504 63.3614 94.2815C64.8702 94.2072 66.3696 94.5575 67.6893 95.2926C69.0089 96.0277 70.0959 97.1182 70.8269 98.4402V95.9951H74.9655V116.858ZM70.8269 107.479V104.142C70.47 102.411 69.538 100.853 68.1825 99.7191C66.827 98.5855 65.1278 97.9441 63.3614 97.899C62.3605 97.8924 61.3689 98.0918 60.4483 98.4848C59.5277 98.8779 58.6978 99.4562 58.0104 100.184C57.2702 100.924 56.6878 101.806 56.2986 102.777C55.9093 103.749 55.7212 104.789 55.7457 105.836C55.7216 106.874 55.9101 107.907 56.2995 108.87C56.689 109.833 57.2712 110.707 58.0104 111.437C58.7003 112.16 59.531 112.734 60.4513 113.124C61.3717 113.513 62.3621 113.71 63.3614 113.702C65.1286 113.67 66.8322 113.036 68.1898 111.905C69.5475 110.773 70.4778 109.212 70.8269 107.479Z" fill="white"/>
<path d="M83.6636 83.9501V116.858H79.525V83.9501H83.6636Z" fill="white"/>
<path d="M90.7883 95.955V87.8382H94.9069V95.955H98.7949V99.5224H94.9069V116.858H90.7883V99.5224H86.9003V95.955H90.7883Z" fill="white"/>
<path d="M101.701 83.9501H105.84V95.9751C106.541 95.2135 107.984 94.8327 110.189 94.8327C111.36 94.7821 112.529 94.971 113.625 95.388C114.721 95.805 115.72 96.4412 116.562 97.2577C117.352 98.0272 117.979 98.9485 118.404 99.9662C118.829 100.984 119.045 102.077 119.037 103.18V116.878H114.918V103.34C114.937 102.684 114.818 102.032 114.57 101.424C114.321 100.817 113.948 100.268 113.475 99.813C113.051 99.3685 112.541 99.0143 111.976 98.7715C111.411 98.5287 110.803 98.4024 110.189 98.4001C109.589 98.3972 108.995 98.5135 108.441 98.7423C107.887 98.9711 107.384 99.3078 106.962 99.7328C106.494 100.165 106.114 100.682 105.84 101.256V116.858H101.701V83.9501Z" fill="white"/>
<path d="M144.249 99.5425C142.113 98.9032 140.159 97.7665 138.547 96.2256C137.852 95.5548 137.302 94.7474 136.933 93.8542C136.564 92.9609 136.384 92.0011 136.403 91.0348C136.401 90.0593 136.597 89.0936 136.98 88.1961C137.362 87.2987 137.923 86.4883 138.628 85.814C139.348 85.0771 140.213 84.4965 141.169 84.1086C142.124 83.7207 143.149 83.5337 144.179 83.5593C145.22 83.5452 146.253 83.7421 147.216 84.1382C148.179 84.5344 149.051 85.1214 149.781 85.8641C150.678 86.8085 151.331 87.9573 151.685 89.211L147.977 90.644C147.715 89.7775 147.297 88.966 146.744 88.249C146.419 87.8922 146.023 87.6065 145.581 87.4099C145.14 87.2133 144.662 87.1101 144.179 87.1067C143.705 87.1063 143.236 87.204 142.801 87.3937C142.367 87.5834 141.976 87.861 141.654 88.2089C141.285 88.5792 140.997 89.0209 140.806 89.5068C140.614 89.9928 140.524 90.5128 140.542 91.0348C140.531 91.5676 140.626 92.0973 140.822 92.5929C141.018 93.0884 141.311 93.5398 141.684 93.9208C142.645 94.7937 143.741 95.5045 144.931 96.0252C147.41 96.7919 149.67 98.1385 151.524 99.9533C152.481 100.879 153.241 101.988 153.761 103.214C154.28 104.439 154.548 105.757 154.548 107.088C154.548 108.419 154.28 109.737 153.761 110.963C153.241 112.188 152.481 113.297 151.524 114.223C149.543 116.164 146.876 117.245 144.103 117.23C141.329 117.215 138.673 116.106 136.714 114.143C135.086 112.487 134.056 110.336 133.788 108.03L137.796 106.587C137.838 108.513 138.547 110.365 139.8 111.828C140.361 112.415 141.036 112.881 141.784 113.196C142.532 113.511 143.337 113.67 144.149 113.662C144.976 113.667 145.796 113.502 146.556 113.176C147.317 112.85 148.002 112.371 148.568 111.768C149.77 110.514 150.441 108.845 150.441 107.108C150.441 105.372 149.77 103.702 148.568 102.448C147.326 101.215 145.86 100.229 144.249 99.5425Z" fill="white"/>
<path d="M166.836 117.139C165.633 117.203 164.43 117.021 163.299 116.604C162.169 116.187 161.136 115.544 160.262 114.714C159.475 113.936 158.85 113.009 158.423 111.987C157.997 110.965 157.777 109.869 157.777 108.762V95.935H161.916V108.601C161.904 109.267 162.031 109.928 162.288 110.542C162.545 111.156 162.927 111.71 163.409 112.169C163.851 112.623 164.381 112.982 164.967 113.223C165.553 113.464 166.182 113.583 166.816 113.572C167.429 113.567 168.035 113.437 168.597 113.191C169.158 112.945 169.664 112.587 170.083 112.139C170.554 111.68 170.925 111.129 171.173 110.52C171.421 109.912 171.542 109.258 171.526 108.601V95.935H175.665V108.762C175.667 109.881 175.446 110.989 175.014 112.022C174.582 113.054 173.948 113.99 173.149 114.774C172.314 115.578 171.323 116.203 170.237 116.609C169.152 117.016 167.994 117.196 166.836 117.139Z" fill="white"/>
<path d="M184.533 89.9926C184.792 90.2213 185.001 90.5017 185.146 90.8157C185.291 91.1298 185.369 91.4706 185.375 91.8164C185.372 92.1686 185.296 92.5164 185.151 92.8374C185.006 93.1584 184.795 93.4455 184.533 93.6803C184.258 93.9484 183.931 94.1584 183.573 94.2979C183.215 94.4373 182.833 94.5033 182.448 94.492C182.056 94.5072 181.665 94.4432 181.299 94.3038C180.932 94.1643 180.597 93.9522 180.314 93.6803C180.058 93.4418 179.852 93.1535 179.711 92.8331C179.57 92.5126 179.495 92.1666 179.492 91.8164C179.499 91.4726 179.574 91.1336 179.716 90.8201C179.857 90.5065 180.061 90.225 180.314 89.9926C180.597 89.7207 180.932 89.5086 181.299 89.3692C181.665 89.2297 182.056 89.1657 182.448 89.181C182.833 89.1696 183.215 89.2356 183.573 89.3751C183.931 89.5145 184.258 89.7245 184.533 89.9926ZM184.483 95.955V116.858H180.364V95.955H184.483Z" fill="white"/>
<path d="M191.798 95.955V87.8382H195.896V95.955H199.784V99.5224H195.896V116.858H191.778V99.5224H187.88V95.955H191.798Z" fill="white"/>
<path d="M205.917 105.765V105.836C205.891 106.875 206.078 107.908 206.468 108.872C206.857 109.835 207.441 110.708 208.182 111.437C208.872 112.16 209.703 112.734 210.623 113.124C211.543 113.513 212.534 113.71 213.533 113.702C214.539 113.704 215.536 113.5 216.461 113.104C217.386 112.707 218.221 112.127 218.914 111.397C219.128 111.177 219.539 110.696 220.147 109.954L224.035 111.327C223.479 112.27 222.805 113.139 222.031 113.912C219.787 116.14 216.756 117.395 213.593 117.404C210.431 117.414 207.393 116.177 205.136 113.962C204.048 112.903 203.183 111.636 202.593 110.237C202.003 108.837 201.698 107.334 201.698 105.815C201.698 104.297 202.003 102.794 202.593 101.394C203.183 99.9951 204.048 98.7283 205.136 97.6686C207.386 95.4471 210.421 94.2016 213.583 94.2016C216.745 94.2016 219.78 95.4471 222.031 97.6686C223.045 98.7338 223.835 99.9929 224.351 101.37C224.868 102.748 225.101 104.215 225.037 105.685L205.917 105.765ZM206.649 102.148H220.347C219.378 99.3086 217.107 97.8924 213.533 97.899C209.959 97.9057 207.678 99.322 206.689 102.148H206.649Z" fill="white"/>
</g>
<g opacity="0.75">
<g opacity="0.25">
<path d="M234.817 25.2183L212.942 6.66978L212.922 6.69984L234.797 25.2483L234.817 25.2183Z" fill="white"/>
<path d="M176.676 18.8851H176.596L212.932 6.65975L234.817 25.2183H234.867L176.676 18.8851ZM176.767 18.8851L234.747 25.2383L212.932 6.69984L176.767 18.8851Z" fill="white"/>
<path d="M214.325 73.1577L176.676 18.835L234.797 25.2082L214.325 73.1577ZM214.325 73.1577L234.797 25.2884L176.737 18.9252L214.325 73.1577Z" fill="white"/>
<path d="M178.079 19.6267C178.231 19.3503 178.297 19.0354 178.269 18.7215C178.241 18.4077 178.121 18.1091 177.924 17.8635C177.727 17.6179 177.461 17.4363 177.16 17.3417C176.86 17.2471 176.538 17.2436 176.236 17.3319C175.933 17.4201 175.664 17.596 175.461 17.8373C175.259 18.0786 175.132 18.3746 175.098 18.6878C175.064 19.0009 175.123 19.3172 175.268 19.5967C175.414 19.8762 175.639 20.1063 175.915 20.258C176.098 20.3601 176.3 20.4248 176.508 20.4484C176.717 20.4719 176.928 20.4538 177.129 20.395C177.331 20.3363 177.518 20.2381 177.681 20.1062C177.845 19.9743 177.98 19.8113 178.079 19.6267Z" fill="white"/>
<path d="M214.325 7.44137C214.474 7.16653 214.539 6.85362 214.51 6.54212C214.482 6.23062 214.362 5.93449 214.165 5.6911C213.969 5.4477 213.705 5.26794 213.406 5.17451C213.108 5.08108 212.788 5.07816 212.488 5.16612C212.188 5.25407 211.921 5.42896 211.72 5.66873C211.519 5.90849 211.394 6.20237 211.36 6.5133C211.325 6.82423 211.384 7.13827 211.529 7.4158C211.673 7.69332 211.896 7.9219 212.17 8.07268C212.353 8.17326 212.554 8.23671 212.761 8.2594C212.969 8.2821 213.178 8.26358 213.379 8.20492C213.579 8.14625 213.765 8.04859 213.928 7.91755C214.09 7.78652 214.225 7.62469 214.325 7.44137Z" fill="white"/>
<path d="M236.2 25.9999C236.352 25.7235 236.419 25.4081 236.392 25.0936C236.365 24.7792 236.245 24.4798 236.048 24.2336C235.85 23.9874 235.584 23.8054 235.283 23.7106C234.982 23.6159 234.66 23.6127 234.357 23.7014C234.054 23.7902 233.784 23.9669 233.582 24.2091C233.38 24.4514 233.254 24.7483 233.22 25.0621C233.187 25.376 233.248 25.6926 233.395 25.972C233.542 26.2513 233.768 26.4808 234.045 26.6312C234.228 26.7318 234.429 26.7952 234.637 26.8179C234.844 26.8406 235.054 26.8221 235.254 26.7634C235.454 26.7047 235.641 26.6071 235.803 26.4761C235.966 26.345 236.1 26.1832 236.2 25.9999Z" fill="white"/>
<path d="M215.206 73.6487C215.299 73.4748 215.337 73.2776 215.318 73.0817C215.299 72.8859 215.223 72.7 215.098 72.5473C214.974 72.3946 214.808 72.2819 214.62 72.2232C214.432 72.1645 214.231 72.1624 214.042 72.2172C213.853 72.2719 213.684 72.3812 213.557 72.5313C213.43 72.6813 213.349 72.8656 213.326 73.061C213.303 73.2565 213.337 73.4544 213.426 73.6302C213.514 73.806 213.653 73.9519 213.824 74.0496C213.94 74.1162 214.069 74.1588 214.202 74.1747C214.336 74.1906 214.471 74.1795 214.6 74.1421C214.729 74.1047 214.849 74.0418 214.953 73.957C215.057 73.8722 215.144 73.7674 215.206 73.6487Z" fill="white"/>
</g>
</g>
<g opacity="0.26">
<path d="M188.06 75.1619L170.293 68.2375L196.247 12.6923L188.06 75.1619ZM188.06 75.1619L196.177 13.0831L170.384 68.2776L188.06 75.1619Z" fill="white"/>
<path d="M196.167 12.8125L170.273 68.2275V68.2876L154.861 20.8893L196.167 12.8125ZM196.167 12.8727L154.982 20.8893L170.303 68.1473L196.167 12.8727Z" fill="white"/>
<path d="M205.987 70.7728L206.047 70.8429L188.01 75.1418L196.147 12.8326V12.7724L205.987 70.7728ZM205.897 70.7227L196.187 12.9027L188.06 75.1018L205.897 70.7227Z" fill="white"/>
<path d="M197.339 12.5921C197.343 12.8239 197.279 13.0517 197.153 13.2466C197.027 13.4416 196.847 13.595 196.634 13.6873C196.422 13.7797 196.186 13.8069 195.958 13.7656C195.73 13.7242 195.519 13.6161 195.352 13.455C195.186 13.2939 195.07 13.0869 195.021 12.8603C194.972 12.6337 194.991 12.3976 195.077 12.1819C195.162 11.9662 195.309 11.7806 195.499 11.6484C195.69 11.5163 195.915 11.4437 196.147 11.4397C196.301 11.437 196.454 11.4647 196.597 11.5212C196.741 11.5777 196.871 11.6618 196.982 11.7689C197.093 11.8759 197.181 12.0036 197.243 12.1449C197.304 12.2861 197.337 12.4381 197.339 12.5921Z" fill="white"/>
<path d="M156.755 20.8392C156.763 21.2061 156.662 21.5672 156.464 21.8766C156.267 22.1859 155.982 22.4297 155.646 22.577C155.309 22.7243 154.937 22.7685 154.576 22.704C154.214 22.6394 153.88 22.4691 153.616 22.2145C153.352 21.9599 153.169 21.6326 153.09 21.2739C153.012 20.9153 153.042 20.5416 153.177 20.2C153.311 19.8585 153.544 19.5645 153.846 19.3554C154.147 19.1463 154.504 19.0314 154.871 19.0254C155.361 19.0173 155.834 19.2036 156.188 19.5435C156.541 19.8834 156.745 20.3492 156.755 20.8392Z" fill="white"/>
<path d="M172.027 68.1473C172.033 68.4881 171.938 68.823 171.753 69.1097C171.569 69.3964 171.303 69.6219 170.991 69.7578C170.678 69.8937 170.332 69.9339 169.997 69.8732C169.661 69.8125 169.351 69.6537 169.106 69.4169C168.861 69.1801 168.692 68.876 168.619 68.5429C168.547 68.2098 168.575 67.8627 168.7 67.5455C168.825 67.2284 169.041 66.9554 169.321 66.761C169.601 66.5667 169.932 66.4598 170.273 66.4538C170.5 66.4498 170.725 66.4905 170.935 66.5734C171.146 66.6564 171.338 66.78 171.501 66.9373C171.664 67.0946 171.794 67.2824 171.884 67.49C171.975 67.6976 172.023 67.921 172.027 68.1473Z" fill="white"/>
<path d="M189.162 75.1017C189.166 75.3257 189.104 75.5457 188.983 75.7341C188.861 75.9224 188.687 76.0706 188.482 76.16C188.277 76.2493 188.049 76.2757 187.829 76.2359C187.609 76.1961 187.405 76.0919 187.244 75.9363C187.083 75.7808 186.971 75.581 186.924 75.3622C186.876 75.1433 186.894 74.9153 186.976 74.7069C187.058 74.4985 187.2 74.3192 187.384 74.1914C187.568 74.0637 187.786 73.9934 188.01 73.9894C188.159 73.9868 188.306 74.0134 188.445 74.0679C188.583 74.1224 188.71 74.2036 188.817 74.3069C188.924 74.4102 189.009 74.5335 189.069 74.6699C189.128 74.8063 189.16 74.953 189.162 75.1017Z" fill="white"/>
<path d="M208.232 70.9832C208.25 71.3829 208.148 71.7789 207.939 72.1201C207.73 72.4614 207.424 72.7322 207.059 72.8978C206.695 73.0634 206.29 73.1162 205.895 73.0494C205.501 72.9825 205.135 72.7991 204.846 72.5228C204.556 72.2464 204.356 71.8898 204.271 71.4987C204.186 71.1077 204.221 70.7002 204.369 70.3287C204.518 69.9572 204.774 69.6387 205.106 69.4143C205.437 69.1898 205.828 69.0696 206.228 69.0692C206.744 69.0687 207.241 69.2674 207.614 69.624C207.987 69.9806 208.209 70.4675 208.232 70.9832Z" fill="white"/>
</g>
<g opacity="0.75">
<path d="M212.523 26.5409L202.303 39.5002L202.319 39.5126L212.539 26.5533L212.523 26.5409Z" fill="#FBFEFF"/>
<path d="M240.409 37.2632L212.411 26.4508L233.043 2.01009L240.409 37.2632ZM240.409 37.2632L233.043 2.01009L212.451 26.4608L240.409 37.2632Z" fill="#FBFEFF"/>
<path d="M212.441 26.4708L208.001 14.957L233.053 2.02012L212.441 26.4708ZM232.973 2.06021L207.982 14.967L212.401 26.4408" fill="#FBFEFF"/>
<path d="M209.976 60.0104V60.0605L202.21 39.4177L212.431 26.4508L209.976 60.0104ZM209.976 60.0104L212.441 26.541L202.24 39.4778L209.976 60.0104Z" fill="#FBFEFF"/>
<path d="M240.409 37.2532L209.926 60.0205L212.401 26.4508L240.409 37.2532ZM240.409 37.2532L212.471 26.4709L210.006 59.9804L240.409 37.2532Z" fill="#FBFEFF"/>
<path d="M210.376 59.1987C210.216 59.1168 210.034 59.0845 209.855 59.1059C209.675 59.1273 209.507 59.2014 209.369 59.3188C209.232 59.4363 209.133 59.5918 209.085 59.7657C209.036 59.9395 209.04 60.1239 209.096 60.2955C209.152 60.467 209.258 60.618 209.4 60.7293C209.543 60.8406 209.715 60.9072 209.895 60.9207C210.075 60.9342 210.255 60.8939 210.412 60.805C210.569 60.7161 210.696 60.5825 210.777 60.4213C210.832 60.3149 210.866 60.1986 210.875 60.0792C210.885 59.9599 210.87 59.8398 210.833 59.726C210.796 59.6122 210.736 59.5069 210.658 59.4164C210.579 59.3259 210.484 59.2519 210.376 59.1987Z" fill="#FBFEFF"/>
<path d="M202.62 38.606C202.514 38.551 202.398 38.5177 202.278 38.5081C202.159 38.4985 202.039 38.5128 201.925 38.5501C201.811 38.5874 201.706 38.647 201.615 38.7254C201.525 38.8039 201.451 38.8995 201.398 39.0068C201.316 39.1677 201.284 39.3493 201.305 39.5286C201.326 39.7079 201.401 39.8767 201.518 40.0138C201.635 40.151 201.791 40.2501 201.965 40.2988C202.139 40.3474 202.323 40.3433 202.495 40.2871C202.666 40.2308 202.817 40.1249 202.929 39.9828C203.04 39.8407 203.106 39.6687 203.12 39.4886C203.133 39.3086 203.093 39.1286 203.004 38.9715C202.915 38.8144 202.782 38.6872 202.62 38.606Z" fill="#FBFEFF"/>
<path d="M212.842 25.6391C212.733 25.5727 212.611 25.5297 212.485 25.5127C212.358 25.4957 212.23 25.5051 212.107 25.5404C211.985 25.5756 211.871 25.6359 211.773 25.7175C211.674 25.799 211.594 25.9 211.537 26.0141C211.48 26.1282 211.448 26.2529 211.441 26.3803C211.435 26.5077 211.455 26.635 211.5 26.7542C211.546 26.8734 211.615 26.9819 211.705 27.0729C211.794 27.1638 211.901 27.2352 212.02 27.2825C212.235 27.3683 212.474 27.3703 212.69 27.2881C212.906 27.2058 213.083 27.0455 213.186 26.8387C213.29 26.6319 213.312 26.3938 213.248 26.1717C213.184 25.9495 213.039 25.7594 212.842 25.6391Z" fill="#FBFEFF"/>
<path d="M233.575 1.00802C233.367 0.903809 233.134 0.863386 232.904 0.891876C232.674 0.920365 232.457 1.01649 232.282 1.16808C232.106 1.31966 231.979 1.5199 231.918 1.74347C231.856 1.96704 231.862 2.20389 231.935 2.42406C232.008 2.64423 232.144 2.83782 232.327 2.98035C232.51 3.12288 232.731 3.20794 232.963 3.22477C233.194 3.2416 233.425 3.18945 233.627 3.07491C233.829 2.96037 233.992 2.78858 234.096 2.58129C234.235 2.30353 234.258 1.98181 234.161 1.68681C234.063 1.3918 233.852 1.14766 233.575 1.00802Z" fill="#FBFEFF"/>
<path d="M240.409 37.8545C240.735 37.8545 241 37.5897 241 37.2632C241 36.9367 240.735 36.672 240.409 36.672C240.082 36.672 239.818 36.9367 239.818 37.2632C239.818 37.5897 240.082 37.8545 240.409 37.8545Z" fill="#FBFEFF"/>
<path d="M208.242 14.476C208.178 14.4433 208.109 14.4235 208.037 14.4179C207.966 14.4123 207.894 14.421 207.826 14.4434C207.758 14.4657 207.695 14.5014 207.641 14.5483C207.587 14.5952 207.542 14.6523 207.51 14.7165C207.45 14.8461 207.441 14.994 207.485 15.13C207.53 15.266 207.625 15.3797 207.751 15.448C207.815 15.4807 207.884 15.5004 207.956 15.506C208.027 15.5116 208.099 15.5029 208.167 15.4806C208.235 15.4582 208.298 15.4225 208.352 15.3757C208.406 15.3288 208.451 15.2716 208.483 15.2075C208.515 15.1437 208.535 15.0742 208.541 15.0027C208.546 14.9313 208.537 14.8595 208.515 14.7915C208.493 14.7234 208.457 14.6605 208.41 14.6063C208.363 14.5522 208.306 14.5079 208.242 14.476Z" fill="#FBFEFF"/>
<path d="M208.152 48.7571L198.782 59.1887L206.208 32.8741L208.152 48.7571ZM208.152 48.7571L206.208 32.9643L198.792 59.1286L208.152 48.7571Z" fill="#FBFEFF"/>
<path d="M213.553 41.8327L208.142 48.7671L206.138 32.8841L213.553 41.8327ZM213.553 41.8327L206.228 32.9342L208.172 48.727L213.553 41.8327Z" fill="#FBFEFF"/>
<path d="M196.007 9.90648L182.258 11.5298V11.5499L196.007 9.92652V9.90648Z" fill="#FBFEFF"/>
<path d="M206.198 32.9242L196.007 9.87641L222.752 7.61171L206.198 32.9242ZM206.198 32.9242L222.722 7.68186L196.027 9.94655L206.198 32.9242Z" fill="#FBFEFF"/>
<path d="M196.007 9.92653L200.205 0.45688L222.742 7.64179L196.007 9.92653ZM222.692 7.64179L200.205 0.476926L196.017 9.90649" fill="#FBFEFF"/>
<path d="M174.642 28.3648L182.278 11.5098L196.027 9.88645L174.642 28.3648ZM174.642 28.3648L195.957 9.96662L182.238 11.59L174.642 28.3648Z" fill="#FBFEFF"/>
<path d="M198.782 59.1988L174.622 28.3548L206.208 32.9242L198.782 59.1988ZM198.782 59.1988L206.188 32.9543L174.662 28.3948L198.782 59.1988Z" fill="#FBFEFF"/>
<path d="M206.198 32.9142L174.622 28.3447L196.007 9.88645L206.198 32.9142ZM206.198 32.9142L195.997 9.92653L174.652 28.3447L206.198 32.9142Z" fill="#FBFEFF"/>
<path d="M175.364 28.1142C175.312 27.9724 175.219 27.8491 175.097 27.7595C174.976 27.6699 174.83 27.618 174.679 27.6102C174.529 27.6024 174.379 27.6391 174.248 27.7157C174.118 27.7924 174.013 27.9056 173.947 28.0413C173.88 28.1769 173.855 28.3292 173.874 28.479C173.894 28.6289 173.957 28.7698 174.055 28.8843C174.154 28.9988 174.284 29.0818 174.429 29.1231C174.575 29.1643 174.729 29.162 174.873 29.1163C174.972 29.0848 175.064 29.0335 175.143 28.9654C175.222 28.8973 175.287 28.8139 175.333 28.7203C175.379 28.6266 175.405 28.5246 175.41 28.4205C175.416 28.3163 175.4 28.2121 175.364 28.1142Z" fill="#FBFEFF"/>
<path d="M182.98 11.2994C182.948 11.1999 182.897 11.1079 182.829 11.0289C182.761 10.9499 182.677 10.8855 182.584 10.8396C182.49 10.7937 182.388 10.7672 182.284 10.7619C182.18 10.7565 182.075 10.7723 181.978 10.8083C181.836 10.8605 181.712 10.9532 181.623 11.0749C181.533 11.1966 181.481 11.3419 181.473 11.4928C181.466 11.6437 181.502 11.7935 181.579 11.9238C181.656 12.054 181.769 12.1589 181.905 12.2253C182.04 12.2918 182.192 12.317 182.342 12.2978C182.492 12.2785 182.633 12.2157 182.748 12.1171C182.862 12.0185 182.945 11.8884 182.986 11.743C183.028 11.5977 183.025 11.4434 182.98 11.2994Z" fill="#FBFEFF"/>
<path d="M196.728 9.67601C196.674 9.53757 196.581 9.41787 196.46 9.33165C196.339 9.24542 196.196 9.19643 196.048 9.19071C195.899 9.18499 195.752 9.22279 195.625 9.29944C195.498 9.3761 195.396 9.48828 195.332 9.62217C195.267 9.75605 195.244 9.90582 195.263 10.053C195.283 10.2002 195.346 10.3384 195.443 10.4506C195.54 10.5628 195.668 10.6442 195.811 10.6846C195.954 10.725 196.106 10.7227 196.247 10.6781C196.346 10.6455 196.437 10.5934 196.515 10.5249C196.592 10.4564 196.656 10.3729 196.701 10.2793C196.746 10.1858 196.771 10.0841 196.776 9.98046C196.781 9.8768 196.764 9.77325 196.728 9.67601Z" fill="#FBFEFF"/>
<path d="M223.173 7.50151C223.134 7.38457 223.051 7.28773 222.941 7.23229C222.831 7.17685 222.704 7.16735 222.587 7.20589C222.47 7.24443 222.373 7.32784 222.318 7.43778C222.262 7.54771 222.253 7.67517 222.291 7.7921C222.33 7.90776 222.413 8.00375 222.521 8.05983C222.629 8.11591 222.755 8.12771 222.872 8.09273C222.932 8.07459 222.986 8.04472 223.034 8.00489C223.081 7.96507 223.12 7.91611 223.148 7.86093C223.176 7.80576 223.193 7.74549 223.197 7.68374C223.201 7.62199 223.193 7.56002 223.173 7.50151Z" fill="#FBFEFF"/>
<path d="M206.659 32.7639C206.628 32.6718 206.571 32.5909 206.494 32.5313C206.417 32.4718 206.324 32.4364 206.228 32.4295C206.131 32.4227 206.034 32.4447 205.95 32.4928C205.865 32.5409 205.797 32.6129 205.754 32.6997C205.71 32.7866 205.694 32.8844 205.706 32.9807C205.718 33.077 205.758 33.1676 205.822 33.241C205.886 33.3143 205.969 33.3672 206.063 33.3929C206.157 33.4185 206.256 33.4159 206.348 33.3852C206.41 33.366 206.468 33.3344 206.517 33.2924C206.567 33.2505 206.607 33.1989 206.636 33.1408C206.665 33.0828 206.682 33.0195 206.686 32.9547C206.69 32.8899 206.681 32.825 206.659 32.7639Z" fill="#FBFEFF"/>
<path d="M208.743 48.5566C208.703 48.4385 208.629 48.3349 208.531 48.2588C208.432 48.1826 208.313 48.1374 208.189 48.1288C208.064 48.1202 207.94 48.1486 207.832 48.2105C207.723 48.2723 207.636 48.3648 207.58 48.4763C207.525 48.5878 207.503 48.7133 207.519 48.837C207.534 48.9607 207.586 49.077 207.667 49.1713C207.749 49.2656 207.856 49.3337 207.976 49.367C208.097 49.4003 208.224 49.3973 208.342 49.3583C208.421 49.3323 208.495 49.2908 208.558 49.2364C208.621 49.1819 208.672 49.1155 208.71 49.041C208.747 48.9664 208.769 48.8853 208.775 48.8021C208.78 48.719 208.77 48.6356 208.743 48.5566Z" fill="#FBFEFF"/>
<path d="M214.094 41.6523C214.045 41.5062 213.94 41.3855 213.802 41.3169C213.663 41.2483 213.504 41.2374 213.358 41.2866C213.212 41.3358 213.091 41.441 213.022 41.5791C212.954 41.7172 212.943 41.8769 212.992 42.0231C213.016 42.0955 213.055 42.1624 213.105 42.2199C213.155 42.2775 213.216 42.3246 213.284 42.3585C213.353 42.3925 213.427 42.4127 213.503 42.4179C213.58 42.4231 213.656 42.4132 213.728 42.3889C213.801 42.3645 213.868 42.3262 213.925 42.276C213.983 42.2258 214.03 42.1648 214.064 42.0964C214.098 42.028 214.118 41.9536 214.123 41.8774C214.128 41.8012 214.119 41.7247 214.094 41.6523Z" fill="#FBFEFF"/>
<path d="M200.636 0.31658C200.608 0.229879 200.554 0.15362 200.482 0.0974742C200.41 0.0413282 200.323 0.00782971 200.232 0.00121275C200.141 -0.00540422 200.05 0.0151624 199.971 0.0603106C199.891 0.105459 199.827 0.17315 199.786 0.254806C199.745 0.336462 199.73 0.428405 199.741 0.518972C199.753 0.60954 199.791 0.694656 199.851 0.763529C199.911 0.832402 199.99 0.881928 200.078 0.90583C200.166 0.929732 200.259 0.926933 200.346 0.897787C200.461 0.85892 200.556 0.77599 200.611 0.667099C200.665 0.558208 200.674 0.432198 200.636 0.31658Z" fill="#FBFEFF"/>
<path d="M199.734 59.6296C199.855 59.3904 199.876 59.113 199.793 58.8584C199.709 58.6037 199.528 58.3927 199.288 58.2718C199.049 58.1509 198.772 58.1299 198.517 58.2136C198.263 58.2972 198.052 58.4785 197.931 58.7177C197.869 58.8365 197.832 58.9664 197.821 59.0997C197.81 59.2331 197.827 59.3673 197.869 59.4943C197.911 59.6213 197.978 59.7386 198.066 59.8393C198.154 59.94 198.261 60.022 198.382 60.0806C198.5 60.1406 198.629 60.1766 198.761 60.1864C198.893 60.1963 199.026 60.1797 199.152 60.1378C199.278 60.0958 199.394 60.0293 199.494 59.9421C199.594 59.8548 199.676 59.7486 199.734 59.6296Z" fill="#FBFEFF"/>
<path d="M210.537 60.301C210.595 60.1837 210.617 60.0516 210.6 59.9217C210.583 59.7918 210.528 59.6698 210.442 59.5712C210.356 59.4727 210.242 59.4019 210.115 59.3681C209.989 59.3342 209.855 59.3387 209.731 59.381C209.607 59.4233 209.498 59.5014 209.419 59.6055C209.339 59.7097 209.293 59.8351 209.284 59.9659C209.276 60.0966 209.307 60.2269 209.373 60.3401C209.439 60.4533 209.537 60.5443 209.655 60.6016C209.812 60.678 209.993 60.6893 210.158 60.633C210.323 60.5767 210.459 60.4573 210.537 60.301Z" fill="#FBFEFF"/>
<path d="M213.994 55.2606C214.085 55.0538 214.093 54.82 214.016 54.6076C213.94 54.3951 213.784 54.22 213.583 54.1185C213.381 54.017 213.148 53.9968 212.932 54.062C212.716 54.1272 212.533 54.2728 212.421 54.4689C212.361 54.5729 212.324 54.6878 212.31 54.8068C212.297 54.9258 212.308 55.0462 212.342 55.1608C212.377 55.2755 212.434 55.3818 212.511 55.4735C212.588 55.5652 212.683 55.6402 212.79 55.694C212.897 55.7478 213.014 55.7793 213.133 55.7865C213.253 55.7937 213.373 55.7765 213.485 55.736C213.598 55.6954 213.701 55.6324 213.789 55.5506C213.876 55.4689 213.946 55.3702 213.994 55.2606Z" fill="#FBFEFF"/>
</g>
<g opacity="0.24">
<g opacity="0.75">
<g opacity="0.25">
<path d="M190.906 52.1642L165.994 59.4994L165.984 59.4693L190.896 52.1341L190.906 52.1642Z" fill="white"/>
<path d="M229.206 36.3413L190.886 52.1742L191.487 4.95621L229.206 36.3413ZM190.886 52.114L229.095 36.3213L191.517 5.01633L190.886 52.114Z" fill="white"/>
<path d="M190.956 52.114L166.034 59.4593L140.381 36.0808H140.451L190.956 52.114ZM165.994 59.4292L190.886 52.114L140.552 36.0808L165.994 59.4292Z" fill="white"/>
<path d="M190.886 52.1742L140.401 36.1409L191.507 4.97627L190.886 52.1742ZM140.461 36.1409L190.886 52.1141L191.487 5.01635L140.461 36.1409Z" fill="white"/>
<path d="M141.884 35.9906C141.909 36.2753 141.849 36.5611 141.711 36.8115C141.573 37.062 141.364 37.2659 141.111 37.3974C140.857 37.5289 140.57 37.5821 140.286 37.5502C140.002 37.5183 139.734 37.4028 139.515 37.2183C139.297 37.0338 139.138 36.7887 139.06 36.5139C138.981 36.2392 138.986 35.9472 139.073 35.6751C139.16 35.4029 139.326 35.1629 139.55 34.9853C139.774 34.8078 140.046 34.7008 140.331 34.6779C140.519 34.6614 140.709 34.6824 140.889 34.7395C141.069 34.7967 141.237 34.8889 141.381 35.011C141.525 35.133 141.644 35.2824 141.731 35.4505C141.817 35.6186 141.869 35.8022 141.884 35.9906Z" fill="white"/>
<path d="M167.427 59.3691C167.455 59.7499 167.332 60.1262 167.084 60.4169C166.837 60.7075 166.485 60.8891 166.105 60.9223C165.82 60.9452 165.535 60.8832 165.286 60.7441C165.037 60.6051 164.834 60.3952 164.704 60.1411C164.574 59.887 164.522 59.6 164.556 59.3165C164.589 59.033 164.705 58.7657 164.89 58.5484C165.075 58.3311 165.321 58.1735 165.595 58.0957C165.87 58.0178 166.161 58.0232 166.433 58.111C166.705 58.1989 166.944 58.3653 167.121 58.5892C167.298 58.8132 167.405 59.0846 167.427 59.3691Z" fill="white"/>
<path d="M192.339 52.0239C192.364 52.3082 192.303 52.5934 192.166 52.8435C192.029 53.0936 191.82 53.2973 191.567 53.429C191.314 53.5606 191.027 53.6142 190.744 53.583C190.46 53.5518 190.192 53.4372 189.973 53.2537C189.755 53.0702 189.596 52.826 189.516 52.552C189.436 52.278 189.439 51.9866 189.525 51.7144C189.611 51.4423 189.776 51.2017 189.998 51.0232C190.221 50.8446 190.491 50.736 190.776 50.7111C191.157 50.6805 191.534 50.8011 191.827 51.0468C192.119 51.2924 192.303 51.6435 192.339 52.0239Z" fill="white"/>
<path d="M192.419 4.88607C192.432 5.00748 192.42 5.13014 192.384 5.24678C192.348 5.36342 192.289 5.47168 192.21 5.56513C192.132 5.65858 192.035 5.73532 191.927 5.7908C191.818 5.84629 191.699 5.87939 191.577 5.88815C191.396 5.90323 191.214 5.86427 191.055 5.77618C190.896 5.68808 190.766 5.55479 190.682 5.39312C190.599 5.23144 190.565 5.04862 190.585 4.86769C190.605 4.68676 190.678 4.51583 190.795 4.37644C190.912 4.23705 191.068 4.13544 191.243 4.08443C191.417 4.03341 191.603 4.03528 191.777 4.08979C191.951 4.14429 192.104 4.249 192.219 4.3907C192.333 4.53241 192.403 4.70477 192.419 4.88607Z" fill="white"/>
</g>
<path d="M230.408 36.2311C230.429 36.484 230.374 36.7374 230.251 36.9593C230.128 37.1812 229.942 37.3615 229.716 37.4776C229.491 37.5937 229.236 37.6402 228.984 37.6114C228.732 37.5825 228.494 37.4795 228.3 37.3154C228.107 37.1513 227.966 36.9335 227.896 36.6895C227.827 36.4455 227.831 36.1864 227.908 35.9448C227.986 35.7032 228.134 35.4901 228.332 35.3323C228.531 35.1746 228.772 35.0793 229.025 35.0587C229.364 35.0309 229.7 35.1389 229.959 35.3587C230.219 35.5785 230.38 35.8923 230.408 36.2311Z" fill="white"/>
</g>
<g opacity="0.75">
<path d="M200.085 16.7607L209.715 19.7669L197.901 50.1099L200.085 16.7607ZM200.085 16.7607L197.941 49.8794L209.675 19.817L200.085 16.7607Z" fill="#FBFEFF"/>
<path d="M197.951 49.9996L209.725 19.787L219.505 44.3279L197.951 49.9996ZM197.951 49.9996L219.455 44.3379L209.725 19.8471L197.951 49.9996Z" fill="#FBFEFF"/>
<path d="M165.764 13.554L199.083 11.3595L200.085 16.7908L165.764 13.554ZM165.994 13.554L200.065 16.7006L199.063 11.3094L165.994 13.554Z" fill="#FBFEFF"/>
<path d="M165.754 13.544L200.135 16.7807L197.981 50.0197L165.754 13.544ZM165.814 13.544L197.901 49.9496L200.045 16.7707L165.814 13.544Z" fill="#FBFEFF"/>
</g>
</g>
<path d="M205.496 33.0745C205.439 32.8898 205.456 32.69 205.544 32.5178C205.632 32.3456 205.784 32.2145 205.967 32.1526C206.105 32.1082 206.253 32.1055 206.392 32.145C206.531 32.1845 206.655 32.2643 206.749 32.3745C206.843 32.4846 206.902 32.62 206.919 32.7637C206.936 32.9073 206.909 33.0527 206.844 33.1815C206.778 33.3103 206.675 33.4168 206.549 33.4873C206.423 33.5579 206.278 33.5894 206.134 33.578C205.99 33.5665 205.853 33.5126 205.739 33.423C205.625 33.3334 205.541 33.2121 205.496 33.0745Z" fill="#FBFEFF"/>
<path d="M206.719 34.4574C207.031 34.354 207.305 34.1605 207.507 33.9013C207.709 33.6421 207.83 33.3288 207.855 33.001C207.879 32.6731 207.805 32.3455 207.643 32.0594C207.482 31.7733 207.239 31.5415 206.945 31.3934C206.652 31.2453 206.321 31.1874 205.995 31.2271C205.668 31.2669 205.361 31.4023 205.112 31.6165C204.862 31.8307 204.682 32.1139 204.594 32.4305C204.505 32.7471 204.512 33.0828 204.614 33.3952C204.682 33.6034 204.791 33.7961 204.934 33.9622C205.076 34.1284 205.25 34.2647 205.446 34.3634C205.641 34.4621 205.855 34.5212 206.073 34.5373C206.291 34.5535 206.511 34.5263 206.719 34.4574ZM205.807 31.7218C206.035 31.6468 206.279 31.6409 206.51 31.705C206.741 31.7691 206.948 31.9002 207.105 32.0818C207.261 32.2634 207.36 32.4873 207.39 32.7252C207.419 32.9631 207.377 33.2044 207.269 33.4185C207.162 33.6326 206.993 33.81 206.784 33.9282C206.576 34.0464 206.337 34.1002 206.098 34.0827C205.859 34.0652 205.63 33.9772 205.441 33.8299C205.252 33.6826 205.111 33.4825 205.035 33.2549C204.937 32.9493 204.962 32.6171 205.107 32.3302C205.251 32.0433 205.503 31.8247 205.807 31.7218Z" fill="#FBFEFF"/>
<path d="M212.791 23.4245C213.074 23.4245 213.303 23.1957 213.303 22.9135C213.303 22.6312 213.074 22.4024 212.791 22.4024C212.509 22.4024 212.28 22.6312 212.28 22.9135C212.28 23.1957 212.509 23.4245 212.791 23.4245Z" fill="#FBFEFF"/>
<path d="M213.152 24.0558C213.37 23.9831 213.561 23.8476 213.702 23.6662C213.843 23.4849 213.927 23.2659 213.944 23.0369C213.96 22.808 213.908 22.5792 213.795 22.3795C213.682 22.1799 213.512 22.0182 213.307 21.915C213.102 21.8117 212.871 21.7716 212.643 21.7995C212.415 21.8274 212.2 21.9221 212.026 22.0718C211.852 22.2215 211.726 22.4194 211.665 22.6405C211.603 22.8616 211.608 23.0961 211.679 23.3143C211.727 23.46 211.803 23.5948 211.903 23.7111C212.003 23.8273 212.125 23.9226 212.261 23.9915C212.398 24.0605 212.548 24.1016 212.7 24.1127C212.853 24.1237 213.007 24.1044 213.152 24.0558ZM212.521 22.1318C212.733 22.0749 212.959 22.1013 213.153 22.2056C213.347 22.31 213.493 22.4844 213.562 22.6932C213.631 22.902 213.618 23.1293 213.525 23.3286C213.432 23.5279 213.266 23.6841 213.062 23.7652C212.85 23.8222 212.623 23.7958 212.43 23.6914C212.236 23.5871 212.09 23.4127 212.021 23.2039C211.952 22.9951 211.965 22.7678 212.058 22.5685C212.151 22.3692 212.316 22.213 212.521 22.1318Z" fill="#FBFEFF"/>
<path d="M223.263 50.7713C223.21 50.6183 223.204 50.4529 223.246 50.2965C223.287 50.14 223.375 49.9996 223.497 49.8933C223.619 49.787 223.77 49.7196 223.931 49.6998C224.092 49.6801 224.255 49.7088 224.399 49.7824C224.543 49.8559 224.662 49.9709 224.74 50.1126C224.819 50.2543 224.853 50.4162 224.839 50.5775C224.824 50.7387 224.762 50.892 224.66 51.0176C224.558 51.1432 224.42 51.2354 224.265 51.2823C224.065 51.3431 223.848 51.3238 223.661 51.2285C223.475 51.1333 223.332 50.9694 223.263 50.7713Z" fill="#FBFEFF"/>
<path d="M224.616 52.2644C224.962 52.149 225.265 51.9339 225.489 51.6461C225.712 51.3583 225.845 51.0108 225.872 50.6473C225.898 50.2839 225.816 49.9209 225.635 49.6041C225.455 49.2874 225.186 49.0311 224.86 48.8675C224.534 48.704 224.167 48.6407 223.806 48.6854C223.444 48.7302 223.104 48.8811 222.828 49.1191C222.552 49.3571 222.353 49.6715 222.256 50.0226C222.158 50.3737 222.167 50.7458 222.281 51.0919C222.357 51.3225 222.478 51.5358 222.636 51.7196C222.795 51.9034 222.988 52.0541 223.205 52.163C223.422 52.272 223.658 52.337 223.9 52.3544C224.143 52.3718 224.386 52.3412 224.616 52.2644ZM223.614 49.2581C223.868 49.1748 224.141 49.1687 224.398 49.2404C224.656 49.312 224.886 49.4584 225.061 49.6609C225.235 49.8635 225.345 50.1131 225.378 50.3784C225.411 50.6437 225.364 50.9126 225.244 51.1514C225.124 51.3902 224.936 51.588 224.703 51.72C224.471 51.8519 224.205 51.9121 223.938 51.8929C223.672 51.8737 223.417 51.7759 223.206 51.612C222.994 51.448 222.837 51.2252 222.752 50.9717C222.691 50.8008 222.665 50.6194 222.676 50.4382C222.686 50.257 222.733 50.0798 222.813 49.9171C222.894 49.7545 223.006 49.6096 223.144 49.4912C223.281 49.3728 223.441 49.2833 223.614 49.2281V49.2581Z" fill="#FBFEFF"/>
<path d="M65.6261 52.1641C70.0453 55.1704 73.6428 61.9344 73.6428 67.2655V81.7956L8.06678 37.5739C3.65764 34.5676 0.0501529 27.7936 0.0501529 22.4725V7.93238L65.6261 52.1641Z" fill="white"/>
<path d="M26.5451 58.1265C28.5037 59.6164 30.1162 61.513 31.2718 63.6857C32.4273 65.8585 33.0985 68.2557 33.239 70.7126V82.3067L6.69382 64.4096C4.73394 62.9186 3.12063 61.0204 1.96501 58.8459C0.809402 56.6713 0.139038 54.272 0 51.8134V40.2294L26.5451 58.1265Z" fill="white"/>
<path d="M66.9488 25.3285C68.9075 26.8184 70.5201 28.715 71.6757 30.8877C72.8312 33.0604 73.5023 35.4577 73.6428 37.9146V49.5087L47.0977 31.6015C45.1428 30.1148 43.5325 28.2231 42.3771 26.0558C41.2217 23.8886 40.5485 21.4972 40.4038 19.0455V7.42134L66.9488 25.3285Z" fill="white"/>
<path d="M110.058 80.8136V57.1244C110.058 53.4869 109.267 50.7312 107.673 48.8773C106.08 47.0235 103.665 46.1016 100.549 46.1016C99.3577 46.0606 98.1723 46.2817 97.0762 46.7492C95.9801 47.2167 95.0002 47.9193 94.2055 48.8072C92.5135 50.7766 91.6387 53.3184 91.7604 55.9119C91.6266 58.5617 92.5492 61.1563 94.3258 63.1269C95.2402 64.0428 96.3377 64.7554 97.5464 65.2182C98.7552 65.681 100.048 65.8835 101.34 65.8125C102.176 65.7969 103.009 65.6996 103.825 65.5219C104.767 65.3215 106.01 64.9807 107.533 64.5198V80.7134C106.27 80.9739 105.068 81.1743 103.926 81.3046C102.871 81.4281 101.811 81.4917 100.749 81.495C93.5341 81.495 87.5817 79.09 82.892 74.28C78.2023 69.4701 75.8641 63.354 75.8774 55.932C75.8774 48.5166 78.2156 42.4006 82.892 37.5839C87.5684 32.7672 93.5208 30.3589 100.749 30.3589C105.531 30.3001 110.226 31.6298 114.267 34.1869C118.268 36.6967 121.429 40.3426 123.346 44.6586C124.158 46.4515 124.724 48.3458 125.029 50.2903C125.44 53.5501 125.611 56.8358 125.541 60.1207V80.8136H110.058Z" fill="white"/>
<path d="M157.597 80.8136V53.2464C157.683 51.1776 156.964 49.1559 155.593 47.6047C154.938 46.8926 154.137 46.3306 153.244 45.957C152.352 45.5834 151.389 45.4071 150.422 45.4402C149.451 45.4094 148.485 45.5865 147.588 45.9599C146.691 46.3332 145.884 46.894 145.221 47.6047C143.842 49.1515 143.123 51.1763 143.217 53.2464V80.8136H127.755V55.7616C127.755 48.0256 129.829 41.8594 133.978 37.2632C138.127 32.667 143.618 30.3756 150.452 30.389C154.081 30.3693 157.663 31.2186 160.897 32.8661C164.13 34.5135 166.923 36.9112 169.041 39.8586C170.478 41.8796 171.537 44.1441 172.167 46.5425C172.892 49.5604 173.229 52.6585 173.169 55.7616V80.8136H157.597Z" fill="white"/>
<path d="M234.527 30.5994H225.297V21.3703H212.862V30.5994H203.632V43.0352H212.862V52.2644H225.297V43.0352H234.527V30.5994Z" fill="#E02521"/>
<path d="M200.245 80.6232C196.929 80.6897 193.632 80.0938 190.548 78.8705C187.464 77.6472 184.656 75.821 182.287 73.4988C179.917 71.1766 178.035 68.4052 176.75 65.3466C175.466 62.2881 174.804 59.0039 174.804 55.6865C174.804 52.369 175.466 49.0849 176.75 46.0263C178.035 42.9678 179.917 40.1963 182.287 37.8741C184.656 35.5519 187.464 33.7257 190.548 32.5024C193.632 31.2791 196.929 30.6832 200.245 30.7497V43.1855C197.774 43.1855 195.358 43.9184 193.303 45.2915C191.248 46.6645 189.646 48.6161 188.701 50.8995C187.755 53.1828 187.507 55.6953 187.99 58.1193C188.472 60.5433 189.662 62.7698 191.409 64.5174C193.157 66.265 195.384 67.4551 197.808 67.9373C200.232 68.4194 202.744 68.172 205.027 67.2262C207.311 66.2804 209.262 64.6788 210.635 62.6238C212.008 60.5689 212.741 58.1529 212.741 55.6815H225.177C225.169 62.2922 222.54 68.6301 217.867 73.3056C213.193 77.9811 206.856 80.6126 200.245 80.6232Z" fill="white"/>
</svg>
